<svg xmlns="http://www.w3.org/2000/svg" viewBox="0 0 540 620"><defs><linearGradient id="bg" x2="1" y2="1"><stop stop-color="#2d5846"/><stop offset="1" stop-color="#14392f"/></linearGradient><linearGradient id="glass" x2="1" y2="1"><stop stop-color="#668775"/><stop offset="1" stop-color="#284f40"/></linearGradient><linearGradient id="leather" x2="0" y2="1"><stop stop-color="#b67c51"/><stop offset="1" stop-color="#78492f"/></linearGradient></defs><rect width="540" height="620" fill="url(#bg)"/><circle cx="270" cy="260" r="220" fill="none" stroke="#c6af78" opacity=".16"/><circle cx="270" cy="260" r="190" fill="none" stroke="#c6af78" opacity=".12"/><path d="M0 510h540" stroke="#c6af78" opacity=".18"/><path d="m0 620 270-110 270 110M100 620l170-110 170 110M0 550h540M0 580h540" stroke="#c6af78" opacity=".1"/><rect x="146" y="78" width="248" height="316" rx="124" fill="#122e27" stroke="#d1b57d" stroke-width="5"/><rect x="157" y="89" width="226" height="294" rx="113" fill="url(#glass)"/><path d="m175 300 180-170M192 332l159-150" stroke="#edf0d1" opacity=".1" stroke-width="18"/><ellipse cx="270" cy="550" rx="142" ry="21" fill="#0c241e" opacity=".45"/><path d="M254 446h32v75h-32z" fill="#a5b2a8"/><ellipse cx="270" cy="528" rx="75" ry="16" fill="#7f9185"/><ellipse cx="270" cy="522" rx="65" ry="12" fill="#c0c8ba"/><rect x="180" y="250" width="180" height="157" rx="29" fill="#352e24" stroke="#c3aa79" stroke-width="3"/><rect x="190" y="259" width="160" height="135" rx="22" fill="url(#leather)"/><path d="M230 271v105M270 269v107M310 271v105" stroke="#d39b6d" opacity=".55"/><rect x="237" y="229" width="66" height="27" rx="10" fill="#b08055" stroke="#d1b57d" stroke-width="2"/><path d="M176 357v75h188v-75" fill="none" stroke="#afbaaf" stroke-width="11"/><rect x="154" y="345" width="47" height="20" rx="9" fill="#452f23" stroke="#c3aa79" stroke-width="2"/><rect x="339" y="345" width="47" height="20" rx="9" fill="#452f23" stroke="#c3aa79" stroke-width="2"/><rect x="177" y="400" width="186" height="41" rx="14" fill="url(#leather)" stroke="#c3aa79" stroke-width="3"/><path d="M307 444v35h54" fill="none" stroke="#b7c1b4" stroke-width="7"/><path d="M328 481h58" stroke="#d0d6c6" stroke-width="10" stroke-linecap="round"/><g stroke="#d6bb83" fill="none" stroke-width="3" stroke-linecap="round"><circle cx="85" cy="230" r="12"/><circle cx="115" cy="230" r="12"/><path d="m94 220 37-52-24 44 1 9m-1-1-37-52 24 44-1 9"/></g><g transform="translate(421 240) rotate(15)" fill="#d6bb83"><rect width="15" height="96" rx="4"/><path d="M12 8h25v4H12m0 7h25v4H12m0 7h25v4H12m0 7h25v4H12m0 7h25v4H12m0 7h25v4H12m0 7h25v4H12m0 7h25v4H12m0 7h25v4H12"/></g><path d="m95 407 4 10 11 4-11 4-4 11-4-11-11-4 11-4zM440 124l3 8 9 3-9 3-3 9-3-9-9-3 9-3z" fill="#d6bb83"/></svg>
